<svg width="15" height="13" viewBox="0 0 15 13" xmlns="http://www.w3.org/2000/svg">
<path d="M8.01833 10.2222L7 9.20389L8.86333 7.33333V5.88889L7 4.01833L8.01833 3L11.6294 6.61111L8.01833 10.2222Z" />
<path opacity="var(--enter-o-1)" d="M9.98389 5.88889V7.33334L6.49194 7.33333H3V5.88889H9.98389Z" />
<path opacity="var(--enter-o-2)" d="M10 5.88889V7.33334L3.49194 7.33333H0V5.88889H10Z" />
<path d="M13.5556 0H3.44444C2.64278 0 2 0.65 2 1.44444V4.33333H3.44444V1.44444H13.5556V11.5556H3.44444V8.66667H2V11.5556C2 12.35 2.64278 13 3.44444 13H13.5556C14.35 13 15 12.35 15 11.5556V1.44444C15 0.65 14.35 0 13.5556 0Z" />
</svg>

