<svg version="1.1"
	 xmlns="http://www.w3.org/2000/svg" xmlns:xlink="http://www.w3.org/1999/xlink"
	 x="0px" y="0px" width="32px" height="32px" viewBox="0.5 -3.5 32 32" enable-background="new 0.5 -3.5 32 32"
	 xml:space="preserve">
<defs>
</defs>
<path fill="#FC6D3E" d="M15.751,7.096c-1.446,0.841-3.488,0.866-4.951,0.062C9.789,6.603,8.646,6.289,7.433,6.289
	C3.328,6.289,0,9.885,0,14.32c0,4.436,3.328,8.032,7.433,8.032c1.274,0,2.473-0.347,3.521-0.957
	c1.445-0.841,3.488-0.865,4.951-0.062C16.916,21.889,18.06,28,19.272,28C23.377,28,32,18.606,32,14.171C32,9.736,23.377,0,19.272,0
	C17.998,0,16.799,6.486,15.751,7.096z"/>
</svg>
