<svg width="32" height="32" viewBox="0 0 32 32" fill="none" xmlns="http://www.w3.org/2000/svg">
<rect width="32" height="32" stroke="none"/>
<path d="M15.024 19.992C14.72 20.872 14.264 21.632 13.656 22.272C13.064 22.912 12.344 23.4 11.496 23.736C10.664 24.072 9.728 24.24 8.688 24.24C7.248 24.24 5.984 23.912 4.896 23.256C3.824 22.584 2.984 21.64 2.376 20.424C1.784 19.208 1.488 17.76 1.488 16.08C1.488 14.4 1.784 12.952 2.376 11.736C2.968 10.52 3.8 9.584 4.872 8.928C5.96 8.256 7.224 7.92 8.664 7.92C9.736 7.92 10.672 8.072 11.472 8.376C12.288 8.664 12.976 9.104 13.536 9.696C14.096 10.272 14.52 10.984 14.808 11.832L13.632 12.384C13.264 11.28 12.68 10.448 11.88 9.888C11.08 9.312 10.032 9.024 8.736 9.024C7.552 9.024 6.504 9.312 5.592 9.888C4.696 10.448 3.992 11.256 3.48 12.312C2.984 13.352 2.736 14.608 2.736 16.08C2.736 17.536 2.984 18.792 3.48 19.848C3.976 20.904 4.672 21.72 5.568 22.296C6.464 22.856 7.504 23.136 8.688 23.136C9.968 23.136 11.056 22.832 11.952 22.224C12.848 21.6 13.472 20.704 13.824 19.536L15.024 19.992ZM22.9695 11.76C24.0895 11.76 25.0735 12.008 25.9215 12.504C26.7855 13 27.4575 13.72 27.9375 14.664C28.4335 15.592 28.6815 16.704 28.6815 18C28.6815 19.296 28.4335 20.416 27.9375 21.36C27.4575 22.288 26.7855 23 25.9215 23.496C25.0735 23.992 24.0895 24.24 22.9695 24.24C21.8495 24.24 20.8575 23.992 19.9935 23.496C19.1455 23 18.4735 22.288 17.9775 21.36C17.4975 20.416 17.2575 19.296 17.2575 18C17.2575 16.704 17.4975 15.592 17.9775 14.664C18.4735 13.72 19.1455 13 19.9935 12.504C20.8575 12.008 21.8495 11.76 22.9695 11.76ZM22.9695 12.792C22.0575 12.792 21.2655 13 20.5935 13.416C19.9215 13.832 19.3935 14.432 19.0095 15.216C18.6415 15.984 18.4575 16.912 18.4575 18C18.4575 19.072 18.6415 20 19.0095 20.784C19.3935 21.568 19.9215 22.168 20.5935 22.584C21.2655 23 22.0575 23.208 22.9695 23.208C23.8815 23.208 24.6735 23 25.3455 22.584C26.0175 22.168 26.5375 21.568 26.9055 20.784C27.2895 20 27.4815 19.072 27.4815 18C27.4815 16.912 27.2895 15.984 26.9055 15.216C26.5375 14.432 26.0175 13.832 25.3455 13.416C24.6735 13 23.8815 12.792 22.9695 12.792Z" fill="#ffffff"/>
<path d="M15.024 19.992L15.4966 20.1553L15.6549 19.6969L15.2016 19.5246L15.024 19.992ZM13.656 22.272L13.2935 21.9276L13.289 21.9325L13.656 22.272ZM11.496 23.736L11.3118 23.2711L11.3088 23.2724L11.496 23.736ZM4.896 23.256L4.63039 23.6797L4.63783 23.6842L4.896 23.256ZM2.376 20.424L1.92642 20.6429L1.92879 20.6476L2.376 20.424ZM2.376 11.736L1.92645 11.5171L1.92645 11.5171L2.376 11.736ZM4.872 8.928L5.13298 9.35449L5.13475 9.3534L4.872 8.928ZM11.472 8.376L11.2943 8.84352L11.3056 8.84749L11.472 8.376ZM13.536 9.696L13.1727 10.0396L13.1775 10.0445L13.536 9.696ZM14.808 11.832L15.0205 12.2846L15.4252 12.0946L15.2814 11.6712L14.808 11.832ZM13.632 12.384L13.1577 12.5421L13.3355 13.0755L13.8445 12.8366L13.632 12.384ZM11.88 9.888L11.5878 10.2938L11.5933 10.2976L11.88 9.888ZM5.592 9.888L5.857 10.312L5.859 10.3107L5.592 9.888ZM3.48 12.312L3.03008 12.0939L3.0287 12.0968L3.48 12.312ZM5.568 22.296L5.2976 22.7166L5.303 22.72L5.568 22.296ZM11.952 22.224L12.2328 22.6378L12.2377 22.6343L11.952 22.224ZM13.824 19.536L14.0016 19.0686L13.5001 18.878L13.3453 19.3917L13.824 19.536ZM14.5514 19.8287C14.2694 20.645 13.8496 21.3423 13.2935 21.9276L14.0185 22.6164C14.6784 21.9217 15.1706 21.099 15.4966 20.1553L14.5514 19.8287ZM13.289 21.9325C12.7501 22.515 12.0936 22.9614 11.3118 23.2712L11.6802 24.2008C12.5944 23.8386 13.3779 23.309 14.023 22.6115L13.289 21.9325ZM11.3088 23.2724C10.5449 23.5808 9.67391 23.74 8.688 23.74V24.74C9.78209 24.74 10.7831 24.5632 11.6832 24.1996L11.3088 23.2724ZM8.688 23.74C7.32658 23.74 6.15427 23.4308 5.15417 22.8278L4.63783 23.6842C5.81373 24.3932 7.16943 24.74 8.688 24.74V23.74ZM5.16157 22.8324C4.17314 22.2127 3.39335 21.3407 2.82321 20.2004L1.92879 20.6476C2.57465 21.9393 3.47486 22.9553 4.63043 23.6796L5.16157 22.8324ZM2.82555 20.2051C2.2738 19.0718 1.988 17.7021 1.988 16.08H0.988C0.988 17.8179 1.2942 19.3442 1.92645 20.6429L2.82555 20.2051ZM1.988 16.08C1.988 14.4579 2.2738 13.0882 2.82555 11.9549L1.92645 11.5171C1.2942 12.8158 0.988 14.3421 0.988 16.08H1.988ZM2.82555 11.9549C3.37911 10.8178 4.14859 9.95687 5.13298 9.35448L4.61102 8.50152C3.45141 9.21113 2.55689 10.2222 1.92645 11.5171L2.82555 11.9549ZM5.13475 9.3534C6.13416 8.73612 7.3048 8.42 8.664 8.42V7.42C7.1432 7.42 5.78585 7.77588 4.60925 8.5026L5.13475 9.3534ZM8.664 8.42C9.69004 8.42 10.5634 8.56563 11.2944 8.84339L11.6496 7.90861C10.7806 7.57837 9.78196 7.42 8.664 7.42V8.42ZM11.3056 8.84749C12.0515 9.11076 12.6707 9.5088 13.1728 10.0396L13.8992 9.3524C13.2813 8.6992 12.5245 8.21723 11.6384 7.9045L11.3056 8.84749ZM13.1775 10.0445C13.68 10.5614 14.0677 11.207 14.3346 11.9928L15.2814 11.6712C14.9723 10.761 14.512 9.98257 13.8945 9.34746L13.1775 10.0445ZM14.5955 11.3794L13.4195 11.9314L13.8445 12.8366L15.0205 12.2846L14.5955 11.3794ZM14.1063 12.2259C13.7111 11.0402 13.0705 10.111 12.1667 9.47838L11.5933 10.2976C12.2895 10.785 12.8169 11.5198 13.1577 12.5421L14.1063 12.2259ZM12.1722 9.48223C11.2638 8.82825 10.1041 8.524 8.736 8.524V9.524C9.95992 9.524 10.8962 9.79575 11.5878 10.2938L12.1722 9.48223ZM8.736 8.524C7.46705 8.524 6.32463 8.83391 5.325 9.46526L5.859 10.3107C6.68337 9.79009 7.63695 9.524 8.736 9.524V8.524ZM5.327 9.464C4.34257 10.0793 3.57844 10.9629 3.03009 12.0939L3.92991 12.5301C4.40556 11.5491 5.04943 10.8167 5.857 10.312L5.327 9.464ZM3.0287 12.0968C2.49302 13.22 2.236 14.5535 2.236 16.08H3.236C3.236 14.6625 3.47498 13.484 3.9313 12.5272L3.0287 12.0968ZM2.236 16.08C2.236 17.5917 2.49344 18.9237 3.02744 20.0606L3.93256 19.6354C3.47456 18.6603 3.236 17.4803 3.236 16.08H2.236ZM3.02744 20.0606C3.55945 21.1933 4.31508 22.085 5.29762 22.7166L5.83838 21.8754C5.02892 21.355 4.39255 20.6147 3.93256 19.6354L3.02744 20.0606ZM5.303 22.72C6.28778 23.3355 7.42192 23.636 8.688 23.636V22.636C7.58608 22.636 6.64022 22.3765 5.833 21.872L5.303 22.72ZM8.688 23.636C10.0495 23.636 11.2397 23.3116 12.2328 22.6377L11.6712 21.8103C10.8723 22.3524 9.88652 22.636 8.688 22.636V23.636ZM12.2377 22.6343C13.2371 21.9383 13.9223 20.9428 14.3027 19.6803L13.3453 19.3917C13.0217 20.4652 12.4589 21.2617 11.6663 21.8137L12.2377 22.6343ZM13.6464 20.0034L14.8464 20.4594L15.2016 19.5246L14.0016 19.0686L13.6464 20.0034ZM25.9215 12.504L25.6691 12.9356L25.6726 12.9376L25.9215 12.504ZM27.9375 14.664L27.4917 14.8907L27.4965 14.8997L27.9375 14.664ZM27.9375 21.36L27.4949 21.1274L27.4934 21.1303L27.9375 21.36ZM25.9215 23.496L25.6726 23.0624L25.6691 23.0644L25.9215 23.496ZM19.9935 23.496L19.7411 23.9276L19.7446 23.9296L19.9935 23.496ZM17.9775 21.36L17.5317 21.5867L17.5365 21.5957L17.9775 21.36ZM17.9775 14.664L17.5349 14.4314L17.5334 14.4343L17.9775 14.664ZM19.9935 12.504L19.7446 12.0704L19.7411 12.0724L19.9935 12.504ZM20.5935 13.416L20.3303 12.9909L20.3303 12.9909L20.5935 13.416ZM19.0095 15.216L18.5605 14.9961L18.5586 14.9999L19.0095 15.216ZM19.0095 20.784L18.5568 20.9965L18.5605 21.0039L19.0095 20.784ZM20.5935 22.584L20.3303 23.0091L20.3303 23.0091L20.5935 22.584ZM25.3455 22.584L25.0823 22.1589L25.0823 22.1589L25.3455 22.584ZM26.9055 20.784L26.4564 20.564L26.4529 20.5715L26.9055 20.784ZM26.9055 15.216L26.4527 15.4285L26.4583 15.4396L26.9055 15.216ZM22.9695 12.26C24.0134 12.26 24.9079 12.4904 25.6691 12.9356L26.1739 12.0724C25.2391 11.5256 24.1656 11.26 22.9695 11.26V12.26ZM25.6726 12.9376C26.4468 13.3821 27.053 14.0276 27.4918 14.8906L28.3832 14.4374C27.862 13.4124 27.1242 12.6179 26.1704 12.0704L25.6726 12.9376ZM27.4965 14.8997C27.9458 15.7402 28.1815 16.7674 28.1815 18H29.1815C29.1815 16.6406 28.9212 15.4438 28.3785 14.4283L27.4965 14.8997ZM28.1815 18C28.1815 19.2322 27.9459 20.269 27.4949 21.1274L28.3801 21.5926C28.9211 20.563 29.1815 19.3598 29.1815 18H28.1815ZM27.4934 21.1303C27.0553 21.9774 26.4491 22.6166 25.6726 23.0624L26.1704 23.9296C27.1219 23.3834 27.8597 22.5986 28.3816 21.5897L27.4934 21.1303ZM25.6691 23.0644C24.9079 23.5096 24.0134 23.74 22.9695 23.74V24.74C24.1656 24.74 25.2391 24.4744 26.1739 23.9276L25.6691 23.0644ZM22.9695 23.74C21.9258 23.74 21.0216 23.5097 20.2424 23.0624L19.7446 23.9296C20.6934 24.4743 21.7732 24.74 22.9695 24.74V23.74ZM20.2459 23.0644C19.4834 22.6184 18.8741 21.9769 18.4185 21.1243L17.5365 21.5957C18.0729 22.5991 18.8076 23.3816 19.7411 23.9276L20.2459 23.0644ZM18.4232 21.1334C17.986 20.2736 17.7575 19.2346 17.7575 18H16.7575C16.7575 19.3574 17.009 20.5584 17.5318 21.5866L18.4232 21.1334ZM17.7575 18C17.7575 16.7651 17.9861 15.7357 18.4216 14.8937L17.5334 14.4343C17.0089 15.4483 16.7575 16.6429 16.7575 18H17.7575ZM18.4201 14.8966C18.8765 14.028 19.4856 13.3803 20.2459 12.9356L19.7411 12.0724C18.8054 12.6197 18.0705 13.412 17.5349 14.4314L18.4201 14.8966ZM20.2424 12.9376C21.0216 12.4903 21.9258 12.26 22.9695 12.26V11.26C21.7732 11.26 20.6934 11.5257 19.7446 12.0704L20.2424 12.9376ZM22.9695 12.292C21.9791 12.292 21.0929 12.5188 20.3303 12.9909L20.8567 13.8411C21.4381 13.4812 22.1359 13.292 22.9695 13.292V12.292ZM20.3303 12.9909C19.5701 13.4615 18.9814 14.1367 18.5605 14.9961L19.4585 15.4359C19.8056 14.7273 20.2729 14.2025 20.8567 13.8411L20.3303 12.9909ZM18.5586 14.9999C18.1506 15.8514 17.9575 16.8573 17.9575 18H18.9575C18.9575 16.9667 19.1324 16.1166 19.4604 15.4321L18.5586 14.9999ZM17.9575 18C17.9575 19.1284 18.1512 20.1321 18.5569 20.9965L19.4621 20.5715C19.1318 19.8679 18.9575 19.0156 18.9575 18H17.9575ZM18.5605 21.0039C18.9814 21.8633 19.5701 22.5385 20.3303 23.0091L20.8567 22.1589C20.2729 21.7975 19.8056 21.2727 19.4585 20.5641L18.5605 21.0039ZM20.3303 23.0091C21.0929 23.4812 21.9791 23.708 22.9695 23.708V22.708C22.1359 22.708 21.4381 22.5188 20.8567 22.1589L20.3303 23.0091ZM22.9695 23.708C23.9599 23.708 24.8461 23.4812 25.6087 23.0091L25.0823 22.1589C24.5009 22.5188 23.8031 22.708 22.9695 22.708V23.708ZM25.6087 23.0091C26.371 22.5372 26.953 21.8595 27.3581 20.9965L26.4529 20.5715C26.122 21.2765 25.664 21.7988 25.0823 22.1589L25.6087 23.0091ZM27.3545 21.0039C27.7788 20.1376 27.9815 19.1312 27.9815 18H26.9815C26.9815 19.0128 26.8002 19.8624 26.4565 20.5641L27.3545 21.0039ZM27.9815 18C27.9815 16.8545 27.7794 15.8459 27.3527 14.9924L26.4583 15.4396C26.7996 16.1221 26.9815 16.9695 26.9815 18H27.9815ZM27.3581 15.0035C26.953 14.1405 26.371 13.4628 25.6087 12.9909L25.0823 13.8411C25.664 14.2012 26.122 14.7235 26.4529 15.4285L27.3581 15.0035ZM25.6087 12.9909C24.8461 12.5188 23.9599 12.292 22.9695 12.292V13.292C23.8031 13.292 24.5009 13.4812 25.0823 13.8411L25.6087 12.9909Z" fill="#ffffff"/>
</svg>
